<svg width="276" height="58" viewBox="0 0 276 58" fill="none" xmlns="http://www.w3.org/2000/svg">
<path d="M22.7894 42.39C24.9354 42.39 27.4874 38.736 29.4594 34.502H30.7934C28.7054 39.664 24.8774 45.522 20.1794 45.522C17.1054 45.522 16.0614 43.898 16.0614 41.81C16.0614 40.476 16.7574 39.084 17.6274 36.764L19.8894 30.384H19.3674C16.5834 36.416 11.2474 45.638 6.08537 45.638C2.43137 45.638 0.807367 42.506 0.807367 38.04C0.807367 27.716 10.1454 13.448 18.2074 13.448C22.0934 13.448 23.6594 16.29 23.4274 20.002H23.6014L25.2834 15.362C27.6034 15.362 29.4594 14.318 30.4454 13.1L31.3734 13.622L23.0214 36.938C22.5574 38.272 21.7454 40.244 21.7454 41.056C21.7454 41.926 21.9774 42.39 22.7894 42.39ZM8.46337 41.404C11.8854 41.404 18.0334 32.356 20.2374 25.976C20.8754 24.12 21.3394 22.264 21.3394 20.35C21.3394 17.856 20.6434 16.406 18.7294 16.406C13.5674 16.406 6.54937 29.108 6.54937 37.344C6.54937 39.954 7.07137 41.404 8.46337 41.404ZM39.6642 45.812C35.0822 45.812 31.1962 43.028 31.1962 39.838C31.1962 38.272 32.2982 37.228 33.6902 37.228C34.8502 37.228 35.2562 37.982 35.8362 39.606C36.8802 42.332 38.2142 43.724 40.5922 43.724C43.2602 43.724 44.5942 41.752 44.5942 39.026C44.5942 36.822 43.5502 35.14 42.1002 33.11L40.5342 30.674C38.3882 27.484 37.1122 25.396 37.1122 22.496C37.1122 17.044 41.8102 13.274 47.3782 13.274C52.0182 13.274 54.2802 15.942 54.2802 17.914C54.2802 19.48 53.0622 20.524 51.7862 20.524C50.5682 20.524 50.1042 19.596 49.6982 18.204C49.1182 16.58 48.2482 15.304 45.9862 15.304C43.6662 15.304 41.9262 16.87 41.9262 19.712C41.9262 21.742 42.9702 23.772 44.5362 26.034L45.9862 28.412C48.1902 31.834 49.4082 33.69 49.4082 36.474C49.4082 41.752 45.2322 45.812 39.6642 45.812ZM77.8957 13.448C80.6797 13.448 83.0577 15.884 83.0577 21.278C83.0577 30.732 75.4597 45.406 66.9337 45.406C64.5557 45.406 62.5837 44.42 61.2497 42.912L58.4077 52.018C57.2477 55.614 57.7697 56.368 62.8737 56.368L62.2357 57.76H47.1557L47.5617 56.368C50.2877 56.368 51.6797 55.672 52.7817 52.018L63.0477 19.306C61.0177 22.96 57.9437 26.962 54.4637 29.282L53.7097 28.238C59.2777 24.468 63.8017 16.812 65.4257 11.708V11.766L66.4117 8.634H71.6897L65.5997 26.788H66.1217C68.7897 20.698 72.9657 13.448 77.8957 13.448ZM66.2957 43.028C71.5737 43.028 77.3737 29.862 77.3737 22.38C77.3737 19.19 76.6197 17.682 75.1117 17.682C71.5737 17.682 66.0637 27.426 63.8017 34.734L62.9317 37.518C62.8737 40.65 64.0337 43.028 66.2957 43.028ZM99.9004 7.648C97.6964 7.648 96.1884 6.198 96.1884 4.052C96.1884 1.848 97.6964 0.456 99.9004 0.456C102.104 0.456 103.612 1.848 103.612 4.052C103.612 6.198 102.104 7.648 99.9004 7.648ZM87.4884 36.764L92.4764 22.728C93.1724 20.814 93.9844 18.436 93.9844 17.624C93.9844 16.87 93.6944 16.638 93.2304 16.638C91.4904 16.638 88.9384 19.712 86.7344 23.366H85.3424C88.0104 18.204 92.3604 13.564 96.5944 13.564C98.6824 13.564 99.6684 15.072 99.6684 16.754C99.6684 18.262 98.9144 20.292 97.9864 22.844L92.9404 36.938C92.4764 38.214 91.7224 40.244 91.7224 41.056C91.7224 41.926 91.9544 42.39 92.7664 42.39C94.9124 42.39 97.5224 38.736 99.4364 34.502H100.77C98.6824 39.664 94.9124 45.522 90.1564 45.522C87.0824 45.522 86.0384 43.898 86.0384 41.81C86.0384 40.476 86.6764 39.084 87.4884 36.764ZM109.15 45H103.408L110.774 22.786C111.412 20.872 112.166 18.436 112.166 17.624C112.166 16.87 111.876 16.638 111.412 16.638C109.672 16.638 107.12 19.712 104.916 23.366H103.524C106.192 18.204 110.542 13.564 114.776 13.564C116.864 13.564 117.85 15.072 117.85 16.754C117.85 18.262 116.98 20.292 115.994 22.786L112.572 32.066H113.094C118.082 19.074 123.07 13.39 127.884 13.39C129.276 13.39 130.03 14.086 130.03 15.362C130.03 17.16 128.522 19.016 126.956 19.016C125.796 19.016 125.216 18.378 123.998 18.378C121.33 18.378 116.4 23.656 109.15 45ZM147.116 42.39C149.262 42.39 151.814 38.736 153.786 34.502H155.12C153.032 39.664 149.204 45.522 144.506 45.522C141.432 45.522 140.388 43.898 140.388 41.81C140.388 40.476 141.084 39.084 141.954 36.764L144.216 30.384H143.694C140.91 36.416 135.574 45.638 130.412 45.638C126.758 45.638 125.134 42.506 125.134 38.04C125.134 27.716 134.472 13.448 142.534 13.448C146.42 13.448 147.986 16.29 147.754 20.002H147.928L149.61 15.362C151.93 15.362 153.786 14.318 154.772 13.1L155.7 13.622L147.348 36.938C146.884 38.272 146.072 40.244 146.072 41.056C146.072 41.926 146.304 42.39 147.116 42.39ZM132.79 41.404C136.212 41.404 142.36 32.356 144.564 25.976C145.202 24.12 145.666 22.264 145.666 20.35C145.666 17.856 144.97 16.406 143.056 16.406C137.894 16.406 130.876 29.108 130.876 37.344C130.876 39.954 131.398 41.404 132.79 41.404ZM170.906 16.116L163.946 36.068C163.424 37.75 162.844 39.432 162.844 40.534C162.844 41.462 163.076 42.042 164.062 42.042C166.672 42.042 169.804 38.156 172.124 33.458H173.516C170.79 39.896 166.208 45.522 161.046 45.522C158.204 45.522 157.044 44.014 157.044 41.694C157.044 40.128 157.624 38.156 158.378 36.01L165.338 16.116H160.988L161.626 14.55C167.02 14.26 169.746 11.592 172.298 6.836H174.212L171.486 14.26H177.17L176.59 16.116H170.906ZM190.978 7.648C188.774 7.648 187.266 6.198 187.266 4.052C187.266 1.848 188.774 0.456 190.978 0.456C193.182 0.456 194.69 1.848 194.69 4.052C194.69 6.198 193.182 7.648 190.978 7.648ZM178.566 36.764L183.554 22.728C184.25 20.814 185.062 18.436 185.062 17.624C185.062 16.87 184.772 16.638 184.308 16.638C182.568 16.638 180.016 19.712 177.812 23.366H176.42C179.088 18.204 183.438 13.564 187.672 13.564C189.76 13.564 190.746 15.072 190.746 16.754C190.746 18.262 189.992 20.292 189.064 22.844L184.018 36.938C183.554 38.214 182.8 40.244 182.8 41.056C182.8 41.926 183.032 42.39 183.844 42.39C185.99 42.39 188.6 38.736 190.514 34.502H191.848C189.76 39.664 185.99 45.522 181.234 45.522C178.16 45.522 177.116 43.898 177.116 41.81C177.116 40.476 177.754 39.084 178.566 36.764ZM202.722 45.812C197.618 45.812 194.138 41.984 194.138 35.836C194.138 24.816 202.49 13.39 211.074 13.39C216.236 13.39 219.716 17.392 219.716 23.482C219.716 34.444 211.364 45.812 202.722 45.812ZM203.186 43.318C208.174 43.318 214.264 30.964 214.264 21.626C214.264 18.088 213.162 15.826 210.668 15.826C205.68 15.826 199.648 28.412 199.648 37.634C199.648 41.114 200.692 43.318 203.186 43.318ZM227.631 45H221.947L229.603 22.728C230.299 20.814 231.111 18.436 231.111 17.624C231.111 16.87 230.821 16.638 230.357 16.638C228.617 16.638 226.065 19.712 223.861 23.366H222.469C225.137 18.204 229.487 13.564 233.721 13.564C235.809 13.564 236.795 15.072 236.795 16.754C236.795 18.262 235.925 20.292 234.939 22.786L231.517 32.066H232.097C238.187 19.248 242.595 13.448 247.293 13.448C249.961 13.448 251.411 15.188 251.411 17.682C251.411 21.916 247.177 30.268 244.335 36.938C243.871 38.272 243.001 40.244 243.001 41.056C243.001 41.926 243.233 42.39 244.045 42.39C246.191 42.39 248.801 38.736 250.715 34.502H252.107C249.961 39.664 246.191 45.522 241.435 45.522C238.419 45.522 237.375 43.898 237.375 41.81C237.375 40.476 238.129 39.142 239.057 36.706C242.189 28.934 245.379 21.742 245.379 19.422C245.379 18.146 245.031 17.566 244.161 17.566C241.899 17.566 236.157 23.25 227.631 45ZM260.959 45.812C256.377 45.812 252.491 43.028 252.491 39.838C252.491 38.272 253.593 37.228 254.985 37.228C256.145 37.228 256.551 37.982 257.131 39.606C258.175 42.332 259.509 43.724 261.887 43.724C264.555 43.724 265.889 41.752 265.889 39.026C265.889 36.822 264.845 35.14 263.395 33.11L261.829 30.674C259.683 27.484 258.407 25.396 258.407 22.496C258.407 17.044 263.105 13.274 268.673 13.274C273.313 13.274 275.575 15.942 275.575 17.914C275.575 19.48 274.357 20.524 273.081 20.524C271.863 20.524 271.399 19.596 270.993 18.204C270.413 16.58 269.543 15.304 267.281 15.304C264.961 15.304 263.221 16.87 263.221 19.712C263.221 21.742 264.265 23.772 265.831 26.034L267.281 28.412C269.485 31.834 270.703 33.69 270.703 36.474C270.703 41.752 266.527 45.812 260.959 45.812Z" fill="#1E1E1E"/>
</svg>
