<svg width="32" height="32" viewBox="0 0 32 32" fill="none" xmlns="http://www.w3.org/2000/svg">
<path fill-rule="evenodd" clip-rule="evenodd" d="M10.0649 6.98245C10.7632 6.96948 11.4605 7.04108 12.1416 7.19566C12.7151 7.32086 13.2596 7.55384 13.7461 7.88221C14.1954 8.20874 14.5509 8.64772 14.777 9.15509C15.0367 9.77899 15.1621 10.4507 15.1448 11.1263C15.1743 11.8681 14.9848 12.6022 14.6 13.2371C14.1952 13.8367 13.6356 14.3156 12.9806 14.6229C13.8695 14.8626 14.6436 15.4115 15.1639 16.1709C15.6634 16.9755 15.9145 17.9097 15.8857 18.8563C15.9021 19.6111 15.7461 20.3596 15.4294 21.0449C15.1367 21.6428 14.708 22.1638 14.1778 22.5662C13.632 22.9642 13.0177 23.2587 12.3655 23.4351C11.6892 23.6222 10.9905 23.7161 10.2888 23.7144H2.58435V6.98245H10.0649ZM9.62039 13.7498C10.1691 13.7725 10.7091 13.6082 11.1523 13.284C11.3646 13.095 11.5297 12.859 11.6345 12.5949C11.7392 12.3307 11.7808 12.0458 11.7557 11.7627C11.7699 11.4321 11.7041 11.1029 11.5638 10.8032C11.4448 10.5646 11.2598 10.3652 11.0308 10.2286C10.7988 10.0783 10.5382 9.97777 10.2654 9.93332C9.96935 9.87598 9.66813 9.8499 9.36667 9.8555H6.07465V13.7648H9.62039V13.7498ZM9.81228 20.8733C10.1441 20.8778 10.4752 20.842 10.7984 20.7667C11.0937 20.7015 11.3738 20.5802 11.6235 20.4096C11.8681 20.239 12.0658 20.0094 12.1981 19.7422C12.3516 19.4014 12.4221 19.0292 12.4039 18.6559C12.4372 18.3157 12.3921 17.9724 12.2722 17.6524C12.1523 17.3323 11.9606 17.044 11.712 16.8095C11.1851 16.4213 10.5393 16.2291 9.88584 16.2658H6.07465V20.8733H9.81228Z" fill="#1E1E1E"/>
<path fill-rule="evenodd" clip-rule="evenodd" d="M20.8567 20.8115C21.1307 21.0654 21.4534 21.261 21.8053 21.3863C22.1571 21.5117 22.5308 21.5642 22.9036 21.5407C23.4946 21.5556 24.0741 21.3758 24.5528 21.0289C24.9423 20.7757 25.2372 20.4009 25.3918 19.9629H28.1753C27.8787 21.21 27.1545 22.3137 26.1284 23.0822C25.1442 23.7355 23.981 24.0664 22.8002 24.0289C21.9574 24.0399 21.1211 23.8815 20.3408 23.563C19.6349 23.2686 19.0018 22.8236 18.4858 22.2592C17.9717 21.6677 17.5768 20.9825 17.3227 20.2411C17.0376 19.4125 16.898 18.5407 16.9102 17.6644C16.905 16.8029 17.0493 15.9469 17.3366 15.1347C17.7226 13.992 18.4607 13.0009 19.445 12.3038C20.4292 11.6066 21.6091 11.2392 22.8151 11.2542C23.7055 11.2356 24.586 11.444 25.3737 11.8597C26.0856 12.2501 26.6998 12.7968 27.17 13.4588C27.651 14.1534 27.9957 14.933 28.186 15.7562C28.3946 16.6401 28.469 17.5504 28.4066 18.4565H20.1158C20.0487 19.3078 20.3142 20.152 20.8567 20.8115ZM24.4942 14.4481C24.2622 14.2161 23.9831 14.0364 23.6758 13.9213C23.3685 13.8062 23.0401 13.7583 22.7128 13.7808C22.2785 13.7642 21.8473 13.8604 21.4612 14.0601C21.1551 14.2286 20.885 14.4553 20.6659 14.7274C20.4718 14.9826 20.3272 15.2719 20.2395 15.5803C20.1605 15.8375 20.1111 16.1029 20.0924 16.3713H25.2276C25.1829 15.6716 24.928 15.0017 24.4963 14.4492L24.4942 14.4481Z" fill="#1E1E1E"/>
<path d="M19.4303 8.09966H25.8651V9.7446H19.4303V8.09966Z" fill="#1E1E1E"/>
</svg>
