<svg width="30" height="30" viewBox="0 0 30 30" fill="none" xmlns="http://www.w3.org/2000/svg">
<path fill-rule="evenodd" clip-rule="evenodd" d="M15 2.5C8.09925 2.5 2.5 8.09925 2.5 15C2.5 21.9008 8.09925 27.5 15 27.5C21.8872 27.5 27.5 21.9008 27.5 15C27.5 8.09925 21.8872 2.5 15 2.5ZM23.2565 8.26193C24.7478 10.0786 25.6426 12.397 25.6698 14.9051C25.3173 14.8373 21.7923 14.1188 18.2402 14.5661C18.1589 14.3899 18.0911 14.2001 18.0098 14.0103C17.7929 13.4951 17.5488 12.9664 17.3048 12.4648C21.2365 10.865 23.026 8.5602 23.2565 8.26193ZM15 4.34382C17.7115 4.34382 20.1925 5.36063 22.077 7.0282C21.8872 7.29935 20.2738 9.455 16.4778 10.8785C14.7288 7.6654 12.7901 5.03525 12.4919 4.62853C13.2917 4.43872 14.1323 4.34382 15 4.34382ZM10.4583 5.34707C10.743 5.72667 12.641 8.3704 14.417 11.5157C9.42787 12.8444 5.0217 12.8173 4.54718 12.8173C5.2386 9.50923 7.4756 6.75705 10.4583 5.34707ZM4.3167 15.0135C4.3167 14.9051 4.3167 14.7967 4.3167 14.6882C4.77766 14.7017 9.95663 14.7695 15.2847 13.1698C15.5965 13.7663 15.8812 14.3764 16.1524 14.9865C16.0168 15.0271 15.8677 15.0678 15.7321 15.1084C10.2278 16.8845 7.29935 21.7381 7.05533 22.1448C5.36063 20.2603 4.3167 17.7522 4.3167 15.0135ZM15 25.6833C12.5326 25.6833 10.2549 24.8427 8.45173 23.4328C8.64155 23.0396 10.8108 18.8639 16.8302 16.7625C16.8574 16.7489 16.8709 16.7489 16.8981 16.7353C18.4029 20.6263 19.013 23.8937 19.1757 24.8292C17.8877 25.385 16.4778 25.6833 15 25.6833ZM20.9517 23.8531C20.8433 23.2023 20.2739 20.0841 18.8775 16.2473C22.2262 15.7186 25.1545 16.5862 25.5206 16.7083C25.0596 19.6773 23.3514 22.2397 20.9517 23.8531Z" fill="#1E1E1E"/>
</svg>
