<svg width="38" height="38" viewBox="0 0 38 38" fill="none" xmlns="http://www.w3.org/2000/svg">
<rect width="38" height="38" rx="6" fill="white"/>
<path d="M16.0585 28.0893L16.1434 28.3114L16.3694 28.2377C20.2605 26.9696 22.1259 24.3322 22.1259 22.4148C22.1259 21.5163 21.8645 20.8307 21.4053 20.3694C20.9469 19.9089 20.3208 19.7017 19.6496 19.7017C17.8665 19.7017 16.8814 20.9612 16.8814 22.2413C16.8814 22.7497 17.0568 23.2216 17.3889 23.5679C17.7228 23.9159 18.2004 24.1218 18.7737 24.1218C19.0171 24.1218 19.3322 24.0873 19.6594 23.9936C19.2669 25.1464 18.0216 26.3038 15.9214 26.9995L15.673 27.0818L15.7665 27.3261L16.0585 28.0893ZM17.4069 12.5324C17.4069 13.0515 17.6084 13.5028 17.9708 13.8216C18.3306 14.1381 18.8312 14.3088 19.4088 14.3088C20.1799 14.3088 20.8889 13.9528 21.4017 13.4372C21.9134 12.9228 22.25 12.2291 22.25 11.5264C22.25 11.0115 22.0606 10.5594 21.7012 10.2385C21.3443 9.91984 20.8423 9.75 20.2482 9.75C19.477 9.75 18.7681 10.106 18.2552 10.6216C17.7436 11.136 17.4069 11.8297 17.4069 12.5324Z" fill="black" stroke="black" stroke-width="0.5"/>
</svg>
