<svg width="366" height="347" viewBox="0 0 366 347" fill="none" xmlns="http://www.w3.org/2000/svg">
<rect width="183" height="347" fill="#2369DB"/>
<rect x="183" width="183" height="347" fill="#01C4A2"/>
<path d="M136.156 257L62.1558 346.5H311.656L292.656 302.5L136.156 257Z" fill="#FF4D11"/>
<path d="M137.656 257L293.656 302L307.656 336.5L137.656 257Z" fill="#D53C09"/>
<path d="M300.156 157V244L86.6558 243L300.156 157Z" fill="white"/>
<path d="M332.656 189.5L319.156 275.5L86.6558 243L332.656 189.5Z" fill="#E0E0E0"/>
<path d="M341.156 228L315.656 311L86.6558 243L341.156 228Z" fill="#D9D9D9"/>
<path d="M309.156 106.5C234.656 -48.5 93.6558 31 92.6558 34L137.656 38V159.5H270.156C270.556 155.1 267.656 134.333 266.156 124.5L309.156 106.5Z" fill="#1E1E1E"/>
<path d="M128.156 227.5L113.156 199.5C117.721 198.047 123.911 195.871 130.525 193.225C115.102 199.152 87.5559 207.015 61.1557 206V160H38.1557C36.6557 128.333 45.3558 59.2 92.1558 36C99.8224 32.3333 119.656 27.7 137.656 38.5V190.249C150.227 184.771 162.796 177.98 167.656 171.5L189.656 202L128.156 227.5Z" fill="#FFC4E8"/>
<path d="M152.156 12C152.156 8.13401 155.29 5 159.156 5H168.156C172.022 5 175.156 8.13401 175.156 12V122H152.156V12Z" fill="#D9D9D9"/>
<rect x="125.156" y="86" width="76" height="106" rx="21" fill="#E0E0E0"/>
<path d="M61.1558 165H66.6558C75.2162 165 82.1558 171.94 82.1558 180.5C82.1558 189.06 75.2162 196 66.6558 196H61.1558V165Z" fill="#FF4D11"/>
<path d="M65.1349 179.5H61.1558V183.5H64.0136C73.0687 183.5 81.7529 179.903 88.1558 173.5L85.6558 171C80.2133 176.442 72.8317 179.5 65.1349 179.5Z" fill="#1E1E1E"/>
<circle cx="91.6558" cy="97.5" r="33.5" fill="#FF4D11"/>
<path d="M91.6558 74.0001L97.2849 83.7501H86.0266L91.6558 74.0001Z" fill="#1E1E1E"/>
<path d="M102.001 74.7535L105.784 86.027L94.1294 83.6665L102.001 74.7535Z" fill="#1E1E1E"/>
<path d="M112.111 80.3971L111.589 91.109L102.573 85.3008L112.111 80.3971Z" fill="#1E1E1E"/>
<path d="M119.031 88.1879L114.092 97.8798L108.168 88.7565L119.031 88.1879Z" fill="#1E1E1E"/>
<path d="M83.0004 75.4811L89.4379 84.0068L78.8357 85.3191L83.0004 75.4811Z" fill="#1E1E1E"/>
<path d="M72.4945 78.959L82.0423 84.5348L72.4397 90.0155L72.4945 78.959Z" fill="#1E1E1E"/>
<path d="M64.7181 85.6696L75.5989 87.521L68.5551 96.0183L64.7181 85.6696Z" fill="#1E1E1E"/>
<path d="M114.156 98C114.156 107.941 101.097 114 91.1558 114C81.2146 114 68.1558 107.941 68.1558 98C68.1558 88.0589 81.2146 82 91.1558 82C101.097 82 114.156 88.0589 114.156 98Z" fill="white"/>
<circle cx="91.1558" cy="98" r="10" fill="#1E1E1E"/>
<path d="M163.5 138L175.191 158.25H151.809L163.5 138Z" fill="#01C4A2"/>
<path d="M163.5 120L175.191 140.25H151.809L163.5 120Z" fill="#2369DB"/>
</svg>
