<svg width="32" height="32" viewBox="0 0 32 32" fill="none" xmlns="http://www.w3.org/2000/svg">
<path fill-rule="evenodd" clip-rule="evenodd" d="M11.2794 11.2793C12.4004 10.1583 13.9208 9.52847 15.5062 9.52847C17.0916 9.52847 18.612 10.1583 19.733 11.2793C20.8541 12.4003 21.4838 13.9207 21.4838 15.5061C21.4838 17.0915 20.8541 18.6119 19.733 19.7329C18.612 20.8539 17.0916 21.4837 15.5062 21.4837C13.9208 21.4837 12.4004 20.8539 11.2794 19.7329C10.1584 18.6119 9.52859 17.0915 9.52859 15.5061C9.52859 13.9207 10.1584 12.4003 11.2794 11.2793ZM14.0212 19.0911C14.492 19.2861 14.9966 19.3865 15.5062 19.3865C16.5354 19.3865 17.5224 18.9777 18.2501 18.25C18.9778 17.5223 19.3866 16.5352 19.3866 15.5061C19.3866 14.4769 18.9778 13.4899 18.2501 12.7622C17.5224 12.0345 16.5354 11.6257 15.5062 11.6257C14.9966 11.6257 14.492 11.726 14.0212 11.9211C13.5504 12.1161 13.1227 12.4019 12.7623 12.7622C12.402 13.1226 12.1162 13.5503 11.9212 14.0211C11.7262 14.4919 11.6258 14.9965 11.6258 15.5061C11.6258 16.0157 11.7262 16.5203 11.9212 16.9911C12.1162 17.4619 12.402 17.8896 12.7623 18.25C13.1227 18.6103 13.5504 18.8961 14.0212 19.0911Z" fill="#1E1E1E"/>
<path d="M22.809 10.4191C23.074 10.1541 23.2229 9.79468 23.2229 9.41993C23.2229 9.04517 23.074 8.68577 22.809 8.42078C22.544 8.15579 22.1846 8.00693 21.8099 8.00693C21.4351 8.00693 21.0757 8.15579 20.8107 8.42078C20.5457 8.68577 20.3969 9.04517 20.3969 9.41993C20.3969 9.79468 20.5457 10.1541 20.8107 10.4191C21.0757 10.6841 21.4351 10.8329 21.8099 10.8329C22.1846 10.8329 22.544 10.6841 22.809 10.4191Z" fill="#1E1E1E"/>
<path fill-rule="evenodd" clip-rule="evenodd" d="M10.7117 3.94624C11.9522 3.88965 12.3476 3.87646 15.5062 3.87646C18.6656 3.87646 19.0602 3.89042 20.3 3.94624C21.5381 4.00284 22.3848 4.20054 23.1244 4.48663C23.9001 4.77881 24.6028 5.23653 25.1836 5.82792C25.7752 6.40887 26.2329 7.11188 26.5249 7.88791C26.8125 8.62756 27.0095 9.47342 27.0661 10.7116C27.1227 11.9521 27.1358 12.3475 27.1358 15.5061C27.1358 18.6647 27.1227 19.0601 27.0661 20.3006C27.0095 21.5388 26.8125 22.3846 26.5257 23.1243C26.2335 23.9 25.7758 24.6027 25.1844 25.1835C24.6029 25.7758 23.8997 26.2333 23.1244 26.5248C22.3848 26.8124 21.5389 27.0094 20.3007 27.0659C19.0602 27.1225 18.6648 27.1357 15.5062 27.1357C12.3476 27.1357 11.9522 27.1225 10.7117 27.0659C9.47354 27.0094 8.62768 26.8124 7.88803 26.5256C7.11234 26.2334 6.40964 25.7756 5.82881 25.1843C5.23648 24.6028 4.77905 23.8996 4.48753 23.1243C4.19989 22.3846 4.00296 21.5388 3.94636 20.3006C3.88977 19.0601 3.87659 18.6655 3.87659 15.5061C3.87659 12.3467 3.89054 11.9521 3.94636 10.7124C4.00296 9.47419 4.20067 8.62756 4.48675 7.88791C4.77894 7.11221 5.23665 6.4095 5.82804 5.82869C6.40952 5.23636 7.11273 4.77892 7.88803 4.48741C8.62768 4.19977 9.47354 4.00284 10.7117 3.94624ZM20.2061 6.03958C18.9796 5.98375 18.6113 5.97212 15.5062 5.97212C12.4011 5.97212 12.0328 5.98375 10.8063 6.03958C9.67279 6.09152 9.0572 6.2807 8.64706 6.44041C8.14188 6.62647 7.68486 6.92346 7.30965 7.30953C6.90339 7.71657 6.65064 8.10422 6.44053 8.64694C6.28004 9.05708 6.09164 9.67267 6.0397 10.8062C5.98388 12.0327 5.97225 12.401 5.97225 15.5061C5.97225 18.6112 5.98388 18.9795 6.0397 20.206C6.09164 21.3395 6.28082 21.9551 6.44053 22.3653C6.62671 22.8704 6.92369 23.3274 7.30965 23.7027C7.68491 24.0887 8.14191 24.3857 8.64706 24.5718C9.0572 24.7323 9.67279 24.9207 10.8063 24.9726C12.0328 25.0284 12.4003 25.0401 15.5062 25.0401C18.6121 25.0401 18.9796 25.0284 20.2061 24.9726C21.3396 24.9207 21.9552 24.7315 22.3654 24.5718C22.8706 24.3857 23.3276 24.0888 23.7028 23.7027C24.0888 23.3274 24.3858 22.8704 24.5719 22.3653C24.7324 21.9551 24.9208 21.3395 24.9727 20.206C25.0286 18.9795 25.0402 18.6112 25.0402 15.5061C25.0402 12.401 25.0286 12.0327 24.9727 10.8062C24.9208 9.67267 24.7316 9.05708 24.5719 8.64694C24.3618 8.10422 24.1098 7.71657 23.7028 7.30953C23.2957 6.90327 22.9081 6.65052 22.3654 6.44041C21.9552 6.27992 21.3396 6.09152 20.2061 6.03958Z" fill="#1E1E1E"/>
</svg>
