<svg width="141" height="21" viewBox="0 0 141 21" fill="none" xmlns="http://www.w3.org/2000/svg">
<path d="M12.152 0.8L12.224 15.752H12.296L20.84 0.8H26.504L26.36 1.376C24.728 1.376 24.224 1.784 23.864 3.2L20.24 17.6C19.88 19.016 20.024 19.424 22.4 19.424L22.208 20H14.72L14.888 19.424C16.688 19.424 17.24 19.016 17.6 17.6L21.392 2.192H21.272L10.712 20.48H9.656L9.512 2.432H9.416L4.76 17.624C4.328 19.04 4.376 19.424 6.488 19.424L6.32 20H0.728L0.896 19.424C2.696 19.424 3.296 19.04 3.728 17.624L8.144 3.176C8.552 1.76 8.528 1.376 6.392 1.376L6.56 0.8H12.152ZM34.1716 0.655999H36.4516L32.2036 5.048H31.4356L34.1716 0.655999ZM33.1156 9.104C33.1156 11.792 29.7316 14.048 26.4196 14.552C26.2756 15.248 26.2036 15.92 26.2036 16.496C26.2036 18.056 26.9236 18.8 28.0036 18.8C29.4196 18.8 30.7636 17.312 31.9636 14.888H32.4916C31.1476 18.2 29.2276 20.336 26.9476 20.336C25.0516 20.336 23.8036 19.016 23.8036 16.64C23.8036 12.56 27.2836 6.92 30.8116 6.92C32.2276 6.92 33.1156 7.808 33.1156 9.104ZM30.6676 7.832C28.9636 7.832 27.3316 10.952 26.6116 13.784C29.1796 13.136 31.4596 11.168 31.4596 8.936C31.4596 8.24 31.2676 7.832 30.6676 7.832ZM41.0038 0.103999L41.2918 0.271999L35.9878 16.64C35.7958 17.192 35.5318 18.032 35.5318 18.368C35.5318 18.728 35.6278 18.92 35.9638 18.92C36.8518 18.92 37.9078 17.408 38.7238 15.656H39.2758C38.4118 17.792 36.8278 20.216 34.8838 20.216C33.6118 20.216 33.1798 19.544 33.1798 18.68C33.1798 18.128 33.3718 17.528 33.7078 16.568L38.0278 3.176C38.4838 1.832 38.2678 1.352 36.5878 1.352L36.7318 0.8C39.5158 0.8 40.4758 0.584 41.0038 0.103999ZM49.6949 18.92C50.5829 18.92 51.6389 17.408 52.4549 15.656H53.0069C52.1429 17.792 50.5589 20.216 48.6149 20.216C47.3429 20.216 46.9109 19.544 46.9109 18.68C46.9109 18.128 47.1989 17.552 47.5589 16.592L48.4949 13.952H48.2789C47.1269 16.448 44.9189 20.264 42.7829 20.264C41.2709 20.264 40.5989 18.968 40.5989 17.12C40.5989 12.848 44.4629 6.944 47.7989 6.944C49.4069 6.944 50.0549 8.12 49.9589 9.656H50.0309L50.7269 7.736C51.6869 7.736 52.4549 7.304 52.8629 6.8L53.2469 7.016L49.7909 16.664C49.5989 17.216 49.2629 18.032 49.2629 18.368C49.2629 18.728 49.3589 18.92 49.6949 18.92ZM43.7669 18.512C45.1829 18.512 47.7269 14.768 48.6389 12.128C48.9029 11.36 49.0949 10.592 49.0949 9.8C49.0949 8.768 48.8069 8.168 48.0149 8.168C45.8789 8.168 42.9749 13.424 42.9749 16.832C42.9749 17.912 43.1909 18.512 43.7669 18.512ZM56.2696 20H53.9176L57.0856 10.784C57.3736 9.992 57.7096 9.008 57.7096 8.672C57.7096 8.36 57.5896 8.264 57.3976 8.264C56.6776 8.264 55.6216 9.536 54.7096 11.048H54.1336C55.2376 8.912 57.0376 6.992 58.7896 6.992C59.6536 6.992 60.0616 7.616 60.0616 8.312C60.0616 8.936 59.7016 9.776 59.2936 10.808L57.8776 14.648H58.1176C60.6376 9.344 62.4616 6.944 64.4056 6.944C65.5096 6.944 66.1096 7.664 66.1096 8.696C66.1096 10.448 64.3576 13.904 63.1816 16.664C62.9896 17.216 62.6296 18.032 62.6296 18.368C62.6296 18.728 62.7256 18.92 63.0616 18.92C63.9496 18.92 65.0296 17.408 65.8216 15.656H66.3976C65.5096 17.792 63.9496 20.216 61.9816 20.216C60.7336 20.216 60.3016 19.544 60.3016 18.68C60.3016 18.128 60.6136 17.576 60.9976 16.568C62.2936 13.352 63.6136 10.376 63.6136 9.416C63.6136 8.888 63.4696 8.648 63.1096 8.648C62.1736 8.648 59.7976 11 56.2696 20ZM73.5404 4.544C72.6284 4.544 72.0044 3.944 72.0044 3.056C72.0044 2.144 72.6284 1.568 73.5404 1.568C74.4524 1.568 75.0764 2.144 75.0764 3.056C75.0764 3.944 74.4524 4.544 73.5404 4.544ZM68.4044 16.592L70.4684 10.784C70.7564 9.992 71.0924 9.008 71.0924 8.672C71.0924 8.36 70.9724 8.264 70.7804 8.264C70.0604 8.264 69.0044 9.536 68.0924 11.048H67.5164C68.6204 8.912 70.4204 6.992 72.1724 6.992C73.0364 6.992 73.4444 7.616 73.4444 8.312C73.4444 8.936 73.1324 9.776 72.7484 10.832L70.6604 16.664C70.4684 17.192 70.1564 18.032 70.1564 18.368C70.1564 18.728 70.2524 18.92 70.5884 18.92C71.4764 18.92 72.5564 17.408 73.3484 15.656H73.9004C73.0364 17.792 71.4764 20.216 69.5084 20.216C68.2364 20.216 67.8044 19.544 67.8044 18.68C67.8044 18.128 68.0684 17.552 68.4044 16.592ZM78.8799 18.8C80.2959 18.8 81.6399 17.312 82.8399 14.888H83.3679C82.0239 18.2 80.1039 20.336 77.8239 20.336C75.9279 20.336 74.6799 19.016 74.6799 16.64C74.6799 12.56 78.1599 6.92 81.6879 6.92C83.1039 6.92 83.9919 7.808 83.9919 9.104C83.9919 11.792 80.6079 14.048 77.2959 14.552C77.1519 15.248 77.0799 15.92 77.0799 16.496C77.0799 18.056 77.7999 18.8 78.8799 18.8ZM81.5439 7.832C79.8399 7.832 78.2079 10.952 77.4879 13.784C80.0559 13.136 82.3359 11.168 82.3359 8.936C82.3359 8.24 82.1439 7.832 81.5439 7.832ZM101.472 1.52C97.0563 1.52 93.2883 8.36 93.2883 13.952C93.2883 17.048 94.4643 19.232 97.3683 19.232C98.7123 19.232 99.9843 18.488 100.872 17.288L102.12 12.872C102.504 11.48 102.36 10.88 98.4723 10.88L98.6643 10.304H106.368L106.272 10.88C105.456 10.88 105.096 11.096 104.688 12.512L103.08 18.032C101.352 19.52 99.1203 20.384 96.8403 20.384C92.3283 20.384 90.4323 17.432 90.4323 13.496C90.4323 7.4 95.2563 0.439999 101.256 0.439999C103.224 0.439999 104.424 1.16 105.144 2.192C105.336 2.48 105.504 2.504 105.672 2.144L106.272 0.655999L106.824 0.727999L105.024 7.376H104.448C104.904 3.992 104.328 1.52 101.472 1.52ZM113.958 0.103999L114.246 0.271999L108.942 16.64C108.75 17.192 108.486 18.032 108.486 18.368C108.486 18.728 108.582 18.92 108.918 18.92C109.806 18.92 110.862 17.408 111.678 15.656H112.23C111.366 17.792 109.782 20.216 107.838 20.216C106.566 20.216 106.134 19.544 106.134 18.68C106.134 18.128 106.326 17.528 106.662 16.568L110.982 3.176C111.438 1.832 111.222 1.352 109.542 1.352L109.686 0.8C112.47 0.8 113.43 0.584 113.958 0.103999ZM116.673 20.336C114.561 20.336 113.121 18.752 113.121 16.208C113.121 11.648 116.577 6.92 120.129 6.92C122.265 6.92 123.705 8.576 123.705 11.096C123.705 15.632 120.249 20.336 116.673 20.336ZM116.865 19.304C118.929 19.304 121.449 14.192 121.449 10.328C121.449 8.864 120.993 7.928 119.961 7.928C117.897 7.928 115.401 13.136 115.401 16.952C115.401 18.392 115.833 19.304 116.865 19.304ZM138.981 6.92C139.629 6.92 140.133 7.472 140.133 8.888C140.133 12.872 136.749 20.336 133.413 20.336C132.165 20.336 131.349 19.496 131.349 18.08C131.349 17.624 131.469 16.976 131.685 16.184H131.541C130.365 18.752 128.877 20.336 127.269 20.336C125.949 20.336 124.941 19.28 124.941 17.384C124.941 14.528 127.245 11.432 129.549 8.912H129.525C128.949 8.912 127.557 8.408 126.981 8.408C126.621 8.408 126.477 8.6 126.477 8.864C126.477 9.392 127.053 9.584 127.053 10.184C127.053 10.568 126.765 10.88 126.381 10.88C126.045 10.88 125.733 10.64 125.733 10.112C125.733 9.752 125.901 9.104 126.213 8.456C126.669 7.52 127.221 7.064 128.013 7.064C128.613 7.064 129.981 7.352 130.557 7.352C130.845 7.352 131.061 7.28 131.229 7.16C131.277 7.088 131.325 7.04 131.373 6.992L131.781 7.4C129.669 9.848 127.293 13.616 127.293 16.616C127.293 17.912 127.629 18.512 128.373 18.512C130.629 18.512 133.221 11.96 133.389 8.264H135.885C135.189 11.912 133.485 14.264 133.485 16.712C133.485 17.744 133.749 18.512 134.541 18.512C136.485 18.512 138.765 13.928 138.765 10.976C138.765 9.416 138.117 8.648 138.117 7.856C138.117 7.352 138.405 6.92 138.981 6.92Z" fill="#1E1E1E"/>
</svg>
