<svg width="48" height="13" viewBox="0 0 48 13" fill="none" xmlns="http://www.w3.org/2000/svg">
<path d="M0.244 12L0.342 11.664C1.406 11.664 1.756 11.44 2.008 10.614L4.584 2.186C4.836 1.36 4.822 1.136 3.576 1.136L3.674 0.8H7.412C9.302 0.8 10.408 1.556 10.408 3.054C10.408 5 8.448 6.288 5.9 6.218L5.858 6.316C6.6 6.4 7.16 6.848 7.468 7.968L8.07 9.97C8.42 11.216 8.714 11.664 9.876 11.664L9.778 12H8.672C7.608 12 6.964 11.762 6.53 10.138L5.802 7.478C5.578 6.75 5.242 6.512 4.794 6.47L3.548 10.614C3.296 11.44 3.338 11.664 4.724 11.664L4.612 12H0.244ZM6.222 1.822L5.032 5.714C5.158 5.728 5.298 5.728 5.41 5.728C7.44 5.686 8.924 4.72 8.924 2.984C8.924 1.864 8.28 1.36 7.09 1.36C6.67 1.36 6.334 1.458 6.222 1.822ZM16.089 0.715999H17.419L14.941 3.278H14.493L16.089 0.715999ZM15.473 5.644C15.473 7.212 13.499 8.528 11.567 8.822C11.483 9.228 11.441 9.62 11.441 9.956C11.441 10.866 11.861 11.3 12.491 11.3C13.317 11.3 14.101 10.432 14.801 9.018H15.109C14.325 10.95 13.205 12.196 11.875 12.196C10.769 12.196 10.041 11.426 10.041 10.04C10.041 7.66 12.071 4.37 14.129 4.37C14.955 4.37 15.473 4.888 15.473 5.644ZM14.045 4.902C13.051 4.902 12.099 6.722 11.679 8.374C13.177 7.996 14.507 6.848 14.507 5.546C14.507 5.14 14.395 4.902 14.045 4.902ZM17.4225 12.196C16.3165 12.196 15.3785 11.524 15.3785 10.754C15.3785 10.376 15.6445 10.124 15.9805 10.124C16.2605 10.124 16.3585 10.306 16.4985 10.698C16.7505 11.356 17.0725 11.692 17.6465 11.692C18.2905 11.692 18.6125 11.216 18.6125 10.558C18.6125 10.026 18.3605 9.62 18.0105 9.13L17.6325 8.542C17.1145 7.772 16.8065 7.268 16.8065 6.568C16.8065 5.252 17.9405 4.342 19.2845 4.342C20.4045 4.342 20.9505 4.986 20.9505 5.462C20.9505 5.84 20.6565 6.092 20.3485 6.092C20.0545 6.092 19.9425 5.868 19.8445 5.532C19.7045 5.14 19.4945 4.832 18.9485 4.832C18.3885 4.832 17.9685 5.21 17.9685 5.896C17.9685 6.386 18.2205 6.876 18.5985 7.422L18.9485 7.996C19.4805 8.822 19.7745 9.27 19.7745 9.942C19.7745 11.216 18.7665 12.196 17.4225 12.196ZM22.1008 12.196C21.4428 12.196 21.0928 11.776 21.0928 11.202C21.0928 10.152 22.0868 8.15 22.7868 6.61C22.9548 6.148 23.1788 5.588 23.1788 5.378C23.1788 5.196 23.1088 5.14 22.9968 5.14C22.5768 5.14 21.9608 5.882 21.4288 6.764H21.0928C21.7368 5.532 22.7868 4.398 23.8088 4.398C24.3128 4.398 24.5508 4.762 24.5508 5.182C24.5508 5.532 24.3408 6.022 24.0748 6.652C23.3328 8.472 22.5628 10.138 22.5208 10.768C22.5068 11.076 22.6188 11.216 22.8008 11.216C23.3048 11.216 24.1308 10.488 25.2088 8.43C25.7828 7.366 26.6228 5.63 26.6648 4.58H28.2888L26.3708 10.124C26.2588 10.446 26.0768 10.922 26.0768 11.132C26.0768 11.342 26.1468 11.44 26.3288 11.44C26.8468 11.44 27.4768 10.558 27.9388 9.536H28.2748C27.7568 10.796 26.8468 12.21 25.7128 12.21C24.9708 12.21 24.7188 11.818 24.7188 11.3C24.7188 10.992 24.8868 10.656 25.0968 10.096L25.9788 7.744H25.8528C24.3408 10.768 23.2348 12.196 22.1008 12.196ZM30.1865 12H28.8145L30.6625 6.624C30.8305 6.162 31.0265 5.588 31.0265 5.392C31.0265 5.21 30.9565 5.154 30.8445 5.154C30.4245 5.154 29.8085 5.896 29.2765 6.778H28.9405C29.5845 5.532 30.6345 4.412 31.6565 4.412C32.1605 4.412 32.3985 4.776 32.3985 5.182C32.3985 5.546 32.1885 6.036 31.9505 6.638L31.1245 8.878H31.2505C32.7065 5.784 33.6865 4.384 34.8065 4.384C35.3525 4.384 35.6605 4.832 35.6605 5.336C35.6605 6.162 35.0585 7.338 34.4005 8.878H34.5265C35.9685 5.77 37.0745 4.384 38.2085 4.384C38.8665 4.384 39.2025 4.804 39.2025 5.406C39.2025 6.428 38.1805 8.444 37.4945 10.054C37.3825 10.376 37.1725 10.852 37.1725 11.048C37.1725 11.258 37.2425 11.37 37.4245 11.37C37.9425 11.37 38.5725 10.488 39.0345 9.466H39.3705C38.8525 10.712 37.9425 12.126 36.8085 12.126C36.0665 12.126 35.8145 11.734 35.8145 11.23C35.8145 10.908 35.9965 10.586 36.2205 9.998C36.9765 8.122 37.7465 6.386 37.7465 5.826C37.7465 5.518 37.6485 5.378 37.4525 5.378C37.0325 5.378 36.0805 6.19 34.7925 8.892C34.3865 9.718 33.9525 10.754 33.4765 12H32.1045L33.2385 9.102C33.7565 7.786 34.3585 6.344 34.3585 5.826C34.3585 5.518 34.2605 5.378 34.0505 5.378C33.5045 5.378 32.2025 6.75 30.1865 12ZM45.8664 0.715999H47.1964L44.7184 3.278H44.2704L45.8664 0.715999ZM45.2504 5.644C45.2504 7.212 43.2764 8.528 41.3444 8.822C41.2604 9.228 41.2184 9.62 41.2184 9.956C41.2184 10.866 41.6384 11.3 42.2684 11.3C43.0944 11.3 43.8784 10.432 44.5784 9.018H44.8864C44.1024 10.95 42.9824 12.196 41.6524 12.196C40.5464 12.196 39.8184 11.426 39.8184 10.04C39.8184 7.66 41.8484 4.37 43.9064 4.37C44.7324 4.37 45.2504 4.888 45.2504 5.644ZM43.8224 4.902C42.8284 4.902 41.8764 6.722 41.4564 8.374C42.9544 7.996 44.2844 6.848 44.2844 5.546C44.2844 5.14 44.1724 4.902 43.8224 4.902Z" fill="#686868"/>
</svg>
