<svg width="32" height="32" viewBox="0 0 32 32" fill="none" xmlns="http://www.w3.org/2000/svg">
<path d="M15.555 4.25146C9.17144 4.25146 3.97638 9.25521 3.97413 15.4047C3.97263 17.3712 4.50684 19.2905 5.51974 20.9809L3.87659 26.7604L10.0163 25.2096C11.7241 26.1029 13.6231 26.5689 15.5505 26.5676H15.555C21.9385 26.5676 27.1336 21.5631 27.1358 15.4137C27.1373 12.435 25.9339 9.63111 23.7467 7.52352C21.5604 5.41518 18.653 4.25222 15.555 4.25146ZM15.555 24.6836H15.5512C13.824 24.6836 12.1299 24.2364 10.6518 23.3916L10.2991 23.1905L6.65719 24.1104L7.62958 20.689L7.40074 20.3386C6.43953 18.8726 5.92785 17.1577 5.92865 15.4047C5.9309 10.2929 10.2496 6.13546 15.5587 6.13546C18.1293 6.13622 20.546 7.10185 22.3639 8.8538C24.1819 10.6057 25.1821 12.9354 25.1806 15.4129C25.1783 20.5247 20.8603 24.6836 15.5542 24.6836H15.555ZM20.8348 17.7396C20.5452 17.6008 19.1227 16.9263 18.857 16.8325C18.5922 16.7402 18.3994 16.6922 18.2065 16.9713C18.0145 17.2504 17.4592 17.8784 17.2912 18.0637C17.1216 18.2498 16.9528 18.2723 16.6632 18.1335C16.3736 17.9939 15.4409 17.6998 14.3365 16.7499C13.4759 16.0116 12.8952 15.0993 12.7264 14.8194C12.5575 14.5411 12.7084 14.3903 12.8532 14.2514C12.983 14.1276 13.1428 13.9266 13.2868 13.7638C13.4309 13.6009 13.4789 13.4846 13.5764 13.2986C13.6725 13.1132 13.6245 12.9497 13.5517 12.8109C13.4789 12.6706 12.9012 11.299 12.6588 10.7415C12.4247 10.1983 12.1861 10.2711 12.0083 10.2621C11.8395 10.2546 11.6474 10.2524 11.4531 10.2524C11.2618 10.2524 10.9474 10.3221 10.6818 10.6012C10.4169 10.8804 9.66889 11.5541 9.66889 12.9257C9.66889 14.298 10.7058 15.623 10.8506 15.8091C10.9954 15.9944 12.8914 18.8103 15.7943 20.0182C16.4846 20.3041 17.0233 20.4759 17.4442 20.605C18.1375 20.8173 18.7685 20.7865 19.2667 20.7153C19.8219 20.635 20.9789 20.0415 21.219 19.391C21.4606 18.7405 21.4606 18.1823 21.3886 18.066C21.318 17.9497 21.1245 17.8799 20.8348 17.7396Z" fill="#1E1E1E"/>
</svg>
